<mxfile host="app.diagrams.net" modified="2024-05-14T12:58:05.193Z" agent="Mozilla/5.0 (Windows NT 10.0; Win64; x64) AppleWebKit/537.36 (KHTML, like Gecko) Chrome/124.0.0.0 Safari/537.36" etag="Ts-vdniSlqdV9OvPLTYV" version="24.3.1" type="device">
  <diagram name="Page-1" id="kilP_MeqdER-6n3mKTsC">
    <mxGraphModel dx="467" dy="236" grid="1" gridSize="10" guides="1" tooltips="1" connect="1" arrows="1" fold="1" page="1" pageScale="1" pageWidth="827" pageHeight="1169" math="0" shadow="0">
      <root>
        <mxCell id="0" />
        <mxCell id="1" parent="0" />
        <mxCell id="7BpyvrYFXCa2iKG3bmWT-7" value="" style="edgeStyle=orthogonalEdgeStyle;rounded=0;orthogonalLoop=1;jettySize=auto;html=1;" edge="1" parent="1" source="7BpyvrYFXCa2iKG3bmWT-1" target="7BpyvrYFXCa2iKG3bmWT-2">
          <mxGeometry relative="1" as="geometry" />
        </mxCell>
        <mxCell id="7BpyvrYFXCa2iKG3bmWT-1" value="" style="sketch=0;points=[[0,0,0],[0.25,0,0],[0.5,0,0],[0.75,0,0],[1,0,0],[0,1,0],[0.25,1,0],[0.5,1,0],[0.75,1,0],[1,1,0],[0,0.25,0],[0,0.5,0],[0,0.75,0],[1,0.25,0],[1,0.5,0],[1,0.75,0]];outlineConnect=0;fontColor=#232F3E;fillColor=#E7157B;strokeColor=#ffffff;dashed=0;verticalLabelPosition=bottom;verticalAlign=top;align=center;html=1;fontSize=12;fontStyle=0;aspect=fixed;shape=mxgraph.aws4.resourceIcon;resIcon=mxgraph.aws4.eventbridge;" vertex="1" parent="1">
          <mxGeometry x="160" y="200" width="40" height="40" as="geometry" />
        </mxCell>
        <mxCell id="7BpyvrYFXCa2iKG3bmWT-8" value="" style="edgeStyle=orthogonalEdgeStyle;rounded=0;orthogonalLoop=1;jettySize=auto;html=1;" edge="1" parent="1" source="7BpyvrYFXCa2iKG3bmWT-2" target="7BpyvrYFXCa2iKG3bmWT-5">
          <mxGeometry relative="1" as="geometry" />
        </mxCell>
        <mxCell id="7BpyvrYFXCa2iKG3bmWT-2" value="" style="outlineConnect=0;dashed=0;verticalLabelPosition=bottom;verticalAlign=top;align=center;html=1;shape=mxgraph.aws3.lambda_function;fillColor=#F58534;gradientColor=none;" vertex="1" parent="1">
          <mxGeometry x="240" y="200" width="40" height="40" as="geometry" />
        </mxCell>
        <mxCell id="7BpyvrYFXCa2iKG3bmWT-10" value="" style="edgeStyle=orthogonalEdgeStyle;rounded=0;orthogonalLoop=1;jettySize=auto;html=1;" edge="1" parent="1" source="7BpyvrYFXCa2iKG3bmWT-3" target="7BpyvrYFXCa2iKG3bmWT-6">
          <mxGeometry relative="1" as="geometry" />
        </mxCell>
        <mxCell id="7BpyvrYFXCa2iKG3bmWT-3" value="" style="outlineConnect=0;dashed=0;verticalLabelPosition=bottom;verticalAlign=top;align=center;html=1;shape=mxgraph.aws3.lambda_function;fillColor=#F58534;gradientColor=none;" vertex="1" parent="1">
          <mxGeometry x="400" y="200" width="39" height="40" as="geometry" />
        </mxCell>
        <mxCell id="7BpyvrYFXCa2iKG3bmWT-9" value="" style="edgeStyle=orthogonalEdgeStyle;rounded=0;orthogonalLoop=1;jettySize=auto;html=1;" edge="1" parent="1" source="7BpyvrYFXCa2iKG3bmWT-5" target="7BpyvrYFXCa2iKG3bmWT-3">
          <mxGeometry relative="1" as="geometry" />
        </mxCell>
        <mxCell id="7BpyvrYFXCa2iKG3bmWT-5" value="" style="sketch=0;points=[[0,0,0],[0.25,0,0],[0.5,0,0],[0.75,0,0],[1,0,0],[0,1,0],[0.25,1,0],[0.5,1,0],[0.75,1,0],[1,1,0],[0,0.25,0],[0,0.5,0],[0,0.75,0],[1,0.25,0],[1,0.5,0],[1,0.75,0]];outlineConnect=0;fontColor=#232F3E;fillColor=#E7157B;strokeColor=#ffffff;dashed=0;verticalLabelPosition=bottom;verticalAlign=top;align=center;html=1;fontSize=12;fontStyle=0;aspect=fixed;shape=mxgraph.aws4.resourceIcon;resIcon=mxgraph.aws4.sqs;" vertex="1" parent="1">
          <mxGeometry x="320" y="200" width="40" height="40" as="geometry" />
        </mxCell>
        <mxCell id="7BpyvrYFXCa2iKG3bmWT-6" value="" style="outlineConnect=0;dashed=0;verticalLabelPosition=bottom;verticalAlign=top;align=center;html=1;shape=mxgraph.aws3.s3;fillColor=#E05243;gradientColor=none;" vertex="1" parent="1">
          <mxGeometry x="480" y="200" width="40" height="40" as="geometry" />
        </mxCell>
        <mxCell id="7BpyvrYFXCa2iKG3bmWT-11" value="&lt;font style=&quot;font-size: 9px;&quot;&gt;EventBridge&lt;/font&gt;" style="text;html=1;align=center;verticalAlign=middle;resizable=0;points=[];autosize=1;strokeColor=none;fillColor=none;" vertex="1" parent="1">
          <mxGeometry x="145" y="230" width="70" height="30" as="geometry" />
        </mxCell>
        <mxCell id="7BpyvrYFXCa2iKG3bmWT-12" value="&lt;font style=&quot;font-size: 8px;&quot;&gt;Lambda1&lt;/font&gt;" style="text;html=1;align=center;verticalAlign=middle;resizable=0;points=[];autosize=1;strokeColor=none;fillColor=none;" vertex="1" parent="1">
          <mxGeometry x="230" y="230" width="60" height="30" as="geometry" />
        </mxCell>
        <mxCell id="7BpyvrYFXCa2iKG3bmWT-13" value="&lt;font style=&quot;font-size: 8px;&quot;&gt;Lambda2&lt;/font&gt;" style="text;html=1;align=center;verticalAlign=middle;resizable=0;points=[];autosize=1;strokeColor=none;fillColor=none;" vertex="1" parent="1">
          <mxGeometry x="389.5" y="230" width="60" height="30" as="geometry" />
        </mxCell>
        <mxCell id="7BpyvrYFXCa2iKG3bmWT-14" value="&lt;span style=&quot;font-size: 8px;&quot;&gt;SQS&lt;/span&gt;" style="text;html=1;align=center;verticalAlign=middle;resizable=0;points=[];autosize=1;strokeColor=none;fillColor=none;" vertex="1" parent="1">
          <mxGeometry x="320" y="230" width="40" height="30" as="geometry" />
        </mxCell>
        <mxCell id="7BpyvrYFXCa2iKG3bmWT-15" value="&lt;span style=&quot;font-size: 8px;&quot;&gt;S3&lt;/span&gt;" style="text;html=1;align=center;verticalAlign=middle;resizable=0;points=[];autosize=1;strokeColor=none;fillColor=none;" vertex="1" parent="1">
          <mxGeometry x="485" y="230" width="30" height="30" as="geometry" />
        </mxCell>
      </root>
    </mxGraphModel>
  </diagram>
</mxfile>
